<svg xmlns="http://www.w3.org/2000/svg" width="25" height="25" viewBox="0 0 25 25"><defs><clipPath id="wm1ma"><path fill="#fff" d="M0 4a4 4 0 0 1 4-4h17a4 4 0 0 1 4 4v17a4 4 0 0 1-4 4H4a4 4 0 0 1-4-4z"/></clipPath></defs><g><g><g><path fill="none" stroke="#fff" stroke-miterlimit="20" stroke-width="2" d="M0 4a4 4 0 0 1 4-4h17a4 4 0 0 1 4 4v17a4 4 0 0 1-4 4H4a4 4 0 0 1-4-4z" clip-path="url(&quot;#wm1ma&quot;)"/></g><g><path fill="#fff" d="M15.63 12.2h-1.963V20H10.75v-7.8H9V9.8h1.75V8.354C10.752 6.249 11.602 5 14.013 5H16v2.4h-1.333c-.939 0-1 .36-1 1.034V9.8H16z"/></g></g></g></svg>