<svg xmlns="http://www.w3.org/2000/svg" width="25" height="25" viewBox="0 0 25 25"><defs><clipPath id="o9kma"><path fill="#fff" d="M0 4a4 4 0 0 1 4-4h17a4 4 0 0 1 4 4v17a4 4 0 0 1-4 4H4a4 4 0 0 1-4-4z"/></clipPath><clipPath id="o9kmb"><path fill="#fff" d="M18 12.5a5.5 5.5 0 1 1-11 0 5.5 5.5 0 0 1 11 0z"/></clipPath></defs><g><g><g><path fill="none" stroke="#fff" stroke-miterlimit="20" stroke-width="2" d="M0 4a4 4 0 0 1 4-4h17a4 4 0 0 1 4 4v17a4 4 0 0 1-4 4H4a4 4 0 0 1-4-4z" clip-path="url(&quot;#o9kma&quot;)"/></g><g><path fill="none" stroke="#fff" stroke-miterlimit="20" stroke-width="2" d="M18 12.5a5.5 5.5 0 1 1-11 0 5.5 5.5 0 0 1 11 0z" clip-path="url(&quot;#o9kmb&quot;)"/></g><g><path fill="#fff" d="M21 5.5a1.5 1.5 0 1 1-3 0 1.5 1.5 0 0 1 3 0z"/></g></g></g></svg>