<svg xmlns="http://www.w3.org/2000/svg" width="27" height="27" viewBox="0 0 27 27"><g><g><g transform="rotate(10.82 14 13)"><path fill="#fff" d="M10.645 7.586c-.224-.54-.46-.55-.675-.558-.175-.008-.375-.008-.574-.008-.197 0-.523.08-.796.404-.276.321-1.05 1.103-1.05 2.692 0 1.586 1.074 3.122 1.222 3.338.15.212 2.073 3.577 5.114 4.87 2.528 1.074 3.044.862 3.59.809.55-.056 1.773-.782 2.021-1.536.25-.752.25-1.398.175-1.534-.073-.135-.273-.215-.574-.377-.298-.162-1.77-.94-2.045-1.05-.274-.106-.473-.16-.673.162-.2.322-.774 1.05-.949 1.265-.175.216-.347.242-.648.083-.298-.162-1.262-.503-2.405-1.603-.89-.855-1.491-1.91-1.666-2.235-.175-.321-.02-.497.13-.659.136-.143.301-.377.451-.566.148-.188.198-.321.299-.537.098-.215.049-.404-.025-.566-.074-.162-.656-1.756-.922-2.394z"/></g><g/></g></g></svg>