<svg xmlns="http://www.w3.org/2000/svg" width="63" height="52" viewBox="0 0 63 52"><g><g><g><path fill="#1a212f" d="M8.173 51.204c-.79.778-3.466 1.2-3.482-1.069-.032-2.268-.225-2.576-1.29-2.495.049.972.065 2.722.065 3.58-.66.697-3.063 1.232-3.289-.793-.08-.762.016-2.171 0-3.062 0-2.609.033-3.192-.177-5.363.548-.243 2.934-1.15 3.273.81.177 1.183.048 2.317.112 2.997 1.435-.308 1.064-2.69 1.226-3.985.854-.26 2.305-.794 2.789.567.58 1.685-.774 3.953-1.758 4.082 1.596.081 2.177 1.037 2.257 2.01.081.81 0 1.879.274 2.721zm5.284-9.72c2.338 0 4.079 1.393 4.095 5.33-.016 4.601-2.58 5.038-4.143 5.038-1.693.049-4.111-.34-4.111-5.038 0-3.808 1.693-5.33 4.16-5.33zM12.62 46.7c-.048 2.463.339 2.9.822 2.9.58 0 .87-1.053.87-2.9 0-2.835-.676-2.576-.854-2.576-.274 0-.838.34-.838 2.576zm7.767-2.236c-1.854-.032-2.128-1.053-1.677-2.964.193.016.355.016 2.789 0h3.063c1.096 0 1.886.518 1.902 1.49.016.859-.338 1.474-1.37 1.507-.306.016-.645.016-1 .016.033 2.139.13 5.217.081 6.626-.145.163-.468.681-1.757.681-1.451.032-1.5-1.004-1.516-2.268-.048-3.143-.032-4.164-.032-5.088zm12.589-.226c-.823-.033-1.258-.081-2.241 0v1.28c.87.08 1.29-.017 2.225.032 1.305 0 1.45 2.317.016 2.317-.694 0-1.483.032-2.209.032-.032.178 0 .891 0 1.118.758.146 1.967.097 3.273-.097.757 1.88.113 2.738-1.467 2.868-1.161.097-1.887.097-3.176 0-1.967-.13-1.806-1.442-1.838-3.322.032-1.96.016-4.73-.194-6.885 1.887-.081 4.611-.13 5.74-.017 1.418.324 1.418 2.722-.13 2.674zM41.895 38c1.097.794.694 1.863-.338 2.333-1.128.502-2.805.697-3.66.081-.757-.632-.821-1.685.243-2.382 1.047.39 2.128.827 3.756-.032zm1.951 7.372c0 2.317.049 5.265.178 5.751-.194.34-.822.713-1.919.713-1.273 0-1.37-.761-1.37-1.863 0-.81.032-3.224.032-3.92-.612 1.522-.757 5.702-3.014 5.783-1.258.049-1.758-.47-1.806-2.025-.097-3.176-.064-4.78-.097-5.784-.016-.956-.096-1.377-.193-2.106 0 0 1.177-.421 1.838-.421.95 0 1.515.372 1.515 1.442 0 .42-.097 3.856-.097 4.439.339-1.345.935-3.29 1.338-4.553.339-1.037.92-1.328 2.048-1.328.967 0 1.58.47 1.58 1.442a84.47 84.47 0 0 0-.032 2.43zm9.646 5.832c-.79.778-3.466 1.2-3.482-1.069-.032-2.268-.225-2.576-1.29-2.495.049.972.065 2.722.065 3.58-.661.697-3.063 1.232-3.289-.793-.08-.762.016-2.171 0-3.062 0-2.609.033-3.192-.177-5.363.548-.243 2.934-1.15 3.273.81.177 1.183.048 2.317.112 2.997 1.435-.308 1.064-2.69 1.226-3.985.854-.26 2.305-.794 2.789.567.58 1.685-.774 3.953-1.758 4.082 1.596.081 2.177 1.037 2.257 2.01.08.81 0 1.879.274 2.721zm6.284.227c-.452-.502-.371-1.442-.371-1.442-.306 0-1.096-.016-1.306-.016-.08.227-.08 1.183-.08 1.458-1.774 1.118-3.676.486-3.45-1.798.306-3.127.79-4.277.935-7.08 1.628-1.167 4.997-1.799 6.303.518.774 1.572.806 3.856.935 6.221.048.908.032 1.216.258 1.847-.564.94-2.418 1.216-3.224.292zm-.468-3.483c-.048-.875-.048-2.268-.242-3.03-.064-.08-.612-.113-.693-.049-.048.39-.048 2.204-.161 3.079z"/></g><g><g><path fill="#ff7236" d="M39 6.995L45.576.42C46.47-.476 48 .158 48 1.423v17.573c0-5.7-4.513-9.166-9-12z"/></g><g><path fill="#ffaa50" d="M48 19.001c0 8.838-7.164 16.002-16 16.002-8.837 0-16-7.164-16-16.002C16 10.164 23.163 4 32 4c8.836 0 16 6.164 16 15.001z"/></g><g><path fill="#ff7236" d="M25 18.996c0-7.701 4.422-13.37 10.31-14.7a18.328 18.328 0 0 0-3.31-.3c-2.944 0-5.694.696-8.063 1.936L18.424.419C17.53-.476 16 .158 16 1.423v17.573c0-.36 0-.358 0 0 0 8.838 7.163 16.002 16 16.002 1.135 0 2.242-.122 3.31-.347C29.422 33.125 25 26.698 25 18.996z"/></g><g><g><path fill="#fffdfb" d="M28.5 29c1.933 0 3.5-1.343 3.5-3s-1.567-3-3.5-3-3.5 1.343-3.5 3 1.567 3 3.5 3z"/></g><g><path fill="#fffdfb" d="M35.5 29c1.933 0 3.5-1.343 3.5-3s-1.567-3-3.5-3-3.5 1.343-3.5 3 1.567 3 3.5 3z"/></g></g><g><path fill="#ff913c" d="M32 26a2 2 0 1 0 0-4 2 2 0 0 0 0 4z"/></g><g><g><path fill="#1a212f" d="M26 20a1 1 0 0 1-1-1v-1a1 1 0 1 1 2 0v1a1 1 0 0 1-1 1z"/></g><g><path fill="#1a212f" d="M38 20a1 1 0 0 1-1-1v-1a1 1 0 1 1 2 0v1a1 1 0 0 1-1 1z"/></g></g></g></g></g></svg>