<svg xmlns="http://www.w3.org/2000/svg" width="24" height="19" viewBox="0 0 24 19"><defs><clipPath id="robca"><path fill="#fff" d="M16.258 9c0 4.97-4.819 9-4.819 9S6.62 13.97 6.62 9s4.82-9 4.82-9 4.818 4.03 4.818 9z"/></clipPath><clipPath id="robcb"><path fill="#fff" d="M9.887 8.403c3.146 3.591 2.357 10.313 2.357 10.313s-5.89.9-9.036-2.69C.062 12.435.85 5.713.85 5.713s5.89-.9 9.036 2.69z"/></clipPath><clipPath id="robcc"><path fill="#fff" d="M14.32 8.403c-3.146 3.591-2.357 10.313-2.357 10.313s5.89.9 9.035-2.69c3.147-3.591 2.358-10.313 2.358-10.313s-5.89-.9-9.036 2.69z"/></clipPath></defs><g><g><g><path fill="none" stroke="#fff" stroke-miterlimit="20" stroke-width="2" d="M16.258 9c0 4.97-4.819 9-4.819 9v0S6.62 13.97 6.62 9s4.82-9 4.82-9v0s4.818 4.03 4.818 9z" clip-path="url(&quot;#robca&quot;)"/></g><g><path fill="none" stroke="#fff" stroke-miterlimit="20" stroke-width="2" d="M9.887 8.403c3.146 3.591 2.357 10.313 2.357 10.313v0s-5.89.9-9.036-2.69C.062 12.435.85 5.713.85 5.713v0s5.89-.9 9.036 2.69z" clip-path="url(&quot;#robcb&quot;)"/></g><g><path fill="none" stroke="#fff" stroke-miterlimit="20" stroke-width="2" d="M14.32 8.403c-3.146 3.591-2.357 10.313-2.357 10.313v0s5.89.9 9.035-2.69c3.147-3.591 2.358-10.313 2.358-10.313v0s-5.89-.9-9.036 2.69z" clip-path="url(&quot;#robcc&quot;)"/></g></g></g></svg>